<svg width="48" height="48" xmlns="http://www.w3.org/2000/svg" viewBox="0 0 512 512" svg-inline="" role="presentation" focusable="false" tabindex="-1"><path d="M409.391 511.359V317.203s-5.75-51.938-56-51.938c-50.219 0-59.406 49.375-59.406 49.375v196.719h-103.5l1.688-320.719h100.125l-.813 40.313s20.876-52.688 99.531-52.688c78.625 0 114.25 45.188 120.875 129.688v203.406h-102.5zM63.547 145.078c-35.563 0-64.438-25.438-64.438-56.875s28.875-56.938 64.438-56.938 64.438 25.5 64.438 56.938-28.876 56.875-64.438 56.875zm63.875 366.656H.172V191.453l127.25-.813v321.094z" fill="#FFF"></path></svg>