<?xml version="1.0" encoding="UTF-8"?>
<!DOCTYPE svg PUBLIC "-//W3C//DTD SVG 1.1//EN" "http://www.w3.org/Graphics/SVG/1.1/DTD/svg11.dtd">
<svg version="1.1" xmlns="http://www.w3.org/2000/svg" xmlns:xlink="http://www.w3.org/1999/xlink" x="0" y="0" width="176" height="65" viewBox="0, 0, 176, 65">
  <g id="symbols">
    <g>
      <path d="M0,38.77 L3.177,34.957 C5.376,36.776 7.681,37.93 10.474,37.93 C12.673,37.93 14,37.055 14,35.622 L14,35.551 C14,34.186 13.162,33.487 9.076,32.438 C4.154,31.178 0.977,29.814 0.977,24.951 L0.977,24.882 C0.977,20.439 4.538,17.5 9.531,17.5 C13.091,17.5 16.129,18.62 18.609,20.614 L15.815,24.672 C13.65,23.168 11.521,22.258 9.46,22.258 C7.401,22.258 6.318,23.203 6.318,24.392 L6.318,24.462 C6.318,26.072 7.366,26.596 11.591,27.68 C16.548,28.974 19.34,30.759 19.34,35.026 L19.34,35.097 C19.34,39.959 15.64,42.687 10.368,42.687 C6.668,42.687 2.933,41.393 0,38.77" fill="#7413DC" id="Fill-4"/>
      <path d="M21.803,32.707 L21.803,32.637 C21.803,27.285 25.888,22.876 31.613,22.876 C35.141,22.876 37.34,24.066 39.086,26.025 L35.839,29.524 C34.652,28.264 33.465,27.46 31.58,27.46 C28.925,27.46 27.04,29.804 27.04,32.566 L27.04,32.637 C27.04,35.506 28.89,37.814 31.788,37.814 C33.57,37.814 34.791,37.045 36.083,35.82 L39.19,38.969 C37.375,40.962 35.28,42.397 31.544,42.397 C25.923,42.397 21.803,38.06 21.803,32.707" fill="#7413DC" id="Fill-5"/>
      <path d="M55.242,32.707 L55.242,32.637 C55.242,29.873 53.252,27.46 50.319,27.46 C47.282,27.46 45.466,29.804 45.466,32.566 L45.466,32.637 C45.466,35.401 47.456,37.814 50.388,37.814 C53.426,37.814 55.242,35.47 55.242,32.707 M40.229,32.707 L40.229,32.637 C40.229,27.249 44.559,22.876 50.388,22.876 C56.184,22.876 60.478,27.18 60.478,32.566 L60.478,32.637 C60.478,38.024 56.149,42.397 50.319,42.397 C44.523,42.397 40.229,38.095 40.229,32.707" fill="#7413DC" id="Fill-6"/>
      <path d="M62.548,35.365 L62.548,23.227 L67.855,23.227 L67.855,33.686 C67.855,36.205 69.042,37.499 71.067,37.499 C73.091,37.499 74.383,36.205 74.383,33.686 L74.383,23.227 L79.69,23.227 L79.69,41.977 L74.383,41.977 L74.383,39.319 C73.162,40.892 71.591,42.326 68.903,42.326 C64.888,42.326 62.548,39.668 62.548,35.365" fill="#7413DC" id="Fill-7"/>
      <path d="M82.774,36.66 L82.774,18.434 L88.08,18.434 L88.08,23.226 L92.481,23.226 L92.481,27.774 L88.08,27.774 L88.08,35.785 C88.08,37.01 88.605,37.605 89.791,37.605 C90.768,37.605 91.641,37.359 92.409,36.94 L92.409,41.208 C91.292,41.872 90.001,42.292 88.22,42.292 C84.973,42.292 82.774,40.998 82.774,36.66" fill="#7413DC" id="Fill-8"/>
      <path d="M94.817,39.494 L97.087,35.995 C99.111,37.465 101.241,38.234 102.986,38.234 C104.522,38.234 105.221,37.675 105.221,36.835 L105.221,36.765 C105.221,35.61 103.405,35.225 101.345,34.596 C98.727,33.826 95.76,32.602 95.76,28.964 L95.76,28.894 C95.76,25.081 98.832,22.947 102.603,22.947 C104.976,22.947 107.56,23.751 109.585,25.115 L107.56,28.789 C105.71,27.704 103.859,27.04 102.497,27.04 C101.205,27.04 100.543,27.6 100.543,28.334 L100.543,28.404 C100.543,29.454 102.324,29.944 104.347,30.643 C106.967,31.518 110.004,32.777 110.004,36.205 L110.004,36.275 C110.004,40.438 106.897,42.327 102.847,42.327 C100.228,42.327 97.296,41.452 94.817,39.494" fill="#7413DC" id="Fill-9"/>
      <path d="M135.719,22.055 C137.233,24.38 137.995,27.041 138.234,28.845 L140.998,28.845 C140.767,26.64 139.878,23.41 138.019,20.552 C135.807,17.154 132.927,15.356 129.691,15.354 L129.671,15.354 C127.203,15.354 124.893,16.466 123.332,18.404 C121.692,20.442 121.071,23.078 121.628,25.636 L124.31,25.048 C123.936,23.335 124.37,21.497 125.469,20.131 C126.522,18.825 128.012,18.105 129.672,18.105 L129.686,18.105 C132.549,18.108 134.547,20.254 135.719,22.055" fill="#7413DC" id="Fill-10"/>
      <path d="M155.672,41.327 C154.597,39.838 153.814,38.053 153.468,36.337 L150.678,36.337 C150.893,37.677 151.461,39.89 152.958,42.223 C152.02,43.797 150.336,45.35 148.556,46.279 C148.555,46.279 148.554,46.279 148.553,46.278 C148.552,46.279 148.551,46.279 148.55,46.279 C146.768,45.35 145.085,43.797 144.147,42.223 C145.644,39.89 146.212,37.677 146.426,36.337 L143.637,36.337 C143.292,38.053 142.508,39.838 141.434,41.327 L140.966,41.977 L141.3,42.706 C142.465,45.254 145.157,47.809 147.997,49.063 L148.549,49.308 L148.553,49.307 L148.556,49.308 L149.108,49.063 C151.948,47.809 154.639,45.254 155.805,42.706 L156.138,41.977 L155.672,41.327 z" fill="#7413DC" id="Fill-11"/>
      <path d="M161.386,22.055 C159.872,24.38 159.109,27.041 158.871,28.845 L156.107,28.845 C156.339,26.64 157.227,23.41 159.086,20.552 C161.298,17.154 164.178,15.356 167.414,15.354 L167.434,15.354 C169.901,15.354 172.211,16.466 173.772,18.404 C175.413,20.442 176.034,23.078 175.476,25.636 L172.794,25.048 C173.168,23.335 172.735,21.497 171.636,20.131 C170.582,18.825 169.092,18.105 167.433,18.105 L167.418,18.105 C164.555,18.108 162.558,20.254 161.386,22.055" fill="#7413DC" id="Fill-12"/>
      <path d="M143.755,28.845 L146.519,28.845 C146.174,25.654 144.925,22.874 143.817,20.411 C142.711,17.953 141.668,15.631 141.683,13.318 C141.706,10.657 143.22,7.945 145.734,6.059 C146.174,5.726 147.426,4.763 148.553,3.728 C149.677,4.763 150.93,5.726 151.371,6.059 C153.884,7.945 155.399,10.657 155.422,13.318 C155.436,15.631 154.393,17.953 153.288,20.411 C152.18,22.874 150.931,25.654 150.586,28.845 L153.35,28.845 C153.692,26.21 154.758,23.839 155.791,21.541 C157.023,18.802 158.185,16.215 158.168,13.297 C158.136,9.78 156.212,6.253 153.017,3.859 C152.641,3.573 150.682,2.077 149.557,0.862 L148.553,-0.223 L147.549,0.862 C146.422,2.077 144.463,3.573 144.086,3.859 C140.894,6.253 138.969,9.78 138.937,13.297 C138.919,16.215 140.082,18.802 141.313,21.541 C142.347,23.839 143.413,26.21 143.755,28.845" fill="#7413DC" id="Fill-13"/>
      <path d="M132.871,33.909 L164.234,33.909 L164.234,31.272 L132.871,31.272 z" fill="#7413DC" id="Fill-14"/>
      <path d="M8.78,51.028 L10.245,51.028 L10.245,61.25 L8.592,61.25 L8.592,54.493 L5.895,59.597 L4.648,59.597 L1.936,54.566 L1.951,61.25 L0.298,61.25 L0.298,51.028 L1.777,51.028 L5.286,57.712 z" fill="#7600DB"/>
      <path d="M18.524,58.031 L13.696,58.031 Q13.783,59.017 14.29,59.496 Q14.798,59.974 15.74,59.974 Q16.915,59.974 17.886,59.22 L18.408,60.467 Q17.915,60.873 17.168,61.12 Q16.422,61.366 15.668,61.366 Q13.928,61.366 12.92,60.38 Q11.912,59.394 11.912,57.683 Q11.912,56.596 12.347,55.755 Q12.782,54.914 13.572,54.45 Q14.363,53.986 15.363,53.986 Q16.828,53.986 17.676,54.928 Q18.524,55.871 18.524,57.524 z M15.407,55.262 Q14.682,55.262 14.239,55.726 Q13.797,56.19 13.696,57.06 L16.973,57.06 Q16.944,56.175 16.538,55.718 Q16.132,55.262 15.407,55.262 z" fill="#7600DB"/>
      <path d="M24.672,55.494 L23.614,55.595 Q21.816,55.784 21.816,57.422 L21.816,61.25 L20.003,61.25 L20.003,54.16 L21.729,54.16 L21.729,55.407 Q22.28,54.131 24.005,54.015 L24.556,53.971 z" fill="#7600DB"/>
      <path d="M28.094,61.366 Q27.152,61.366 26.361,61.134 Q25.571,60.902 25.02,60.467 L25.528,59.206 Q26.659,60.032 28.123,60.032 Q28.747,60.032 29.073,59.829 Q29.399,59.626 29.399,59.249 Q29.399,58.93 29.174,58.756 Q28.95,58.582 28.37,58.437 L27.21,58.176 Q26.224,57.959 25.745,57.466 Q25.267,56.973 25.267,56.19 Q25.267,55.537 25.636,55.037 Q26.006,54.537 26.666,54.261 Q27.326,53.986 28.196,53.986 Q28.95,53.986 29.653,54.218 Q30.356,54.45 30.893,54.87 L30.385,56.103 Q29.283,55.305 28.181,55.305 Q27.587,55.305 27.253,55.523 Q26.92,55.74 26.92,56.132 Q26.92,56.422 27.13,56.61 Q27.34,56.799 27.804,56.9 L29.008,57.176 Q30.066,57.408 30.559,57.908 Q31.052,58.408 31.052,59.22 Q31.052,60.206 30.255,60.786 Q29.457,61.366 28.094,61.366 z" fill="#7600DB"/>
      <path d="M38.737,58.031 L33.909,58.031 Q33.996,59.017 34.503,59.496 Q35.011,59.974 35.953,59.974 Q37.128,59.974 38.099,59.22 L38.621,60.467 Q38.128,60.873 37.381,61.12 Q36.635,61.366 35.881,61.366 Q34.141,61.366 33.133,60.38 Q32.125,59.394 32.125,57.683 Q32.125,56.596 32.56,55.755 Q32.995,54.914 33.785,54.45 Q34.576,53.986 35.576,53.986 Q37.041,53.986 37.889,54.928 Q38.737,55.871 38.737,57.524 z M35.62,55.262 Q34.895,55.262 34.452,55.726 Q34.01,56.19 33.909,57.06 L37.186,57.06 Q37.157,56.175 36.751,55.718 Q36.345,55.262 35.62,55.262 z" fill="#7600DB"/>
      <path d="M45.074,54.174 L46.857,54.174 L42.594,63.86 L40.767,63.86 L42.058,60.975 L39.1,54.174 L41.014,54.174 L43.015,59.177 z" fill="#7600DB"/>
      <path d="M64.678,51.028 L66.461,51.028 L62.851,61.25 L61.328,61.25 L58.762,53.899 L56.181,61.25 L54.658,61.25 L51.062,51.028 L52.947,51.028 L55.485,58.64 L58.153,51.028 L59.472,51.028 L62.068,58.684 z" fill="#7600DB"/>
      <path d="M73.131,58.031 L68.303,58.031 Q68.39,59.017 68.897,59.496 Q69.405,59.974 70.347,59.974 Q71.522,59.974 72.493,59.22 L73.015,60.467 Q72.522,60.873 71.775,61.12 Q71.029,61.366 70.275,61.366 Q68.535,61.366 67.527,60.38 Q66.519,59.394 66.519,57.683 Q66.519,56.596 66.954,55.755 Q67.389,54.914 68.179,54.45 Q68.97,53.986 69.97,53.986 Q71.435,53.986 72.283,54.928 Q73.131,55.871 73.131,57.524 z M70.014,55.262 Q69.289,55.262 68.846,55.726 Q68.404,56.19 68.303,57.06 L71.58,57.06 Q71.551,56.175 71.145,55.718 Q70.739,55.262 70.014,55.262 z" fill="#7600DB"/>
      <path d="M77.655,53.986 Q79.149,53.986 79.874,54.711 Q80.599,55.436 80.599,56.944 L80.599,61.25 L78.873,61.25 L78.873,60.163 Q78.627,60.728 78.097,61.047 Q77.568,61.366 76.872,61.366 Q76.162,61.366 75.582,61.076 Q75.002,60.786 74.668,60.279 Q74.335,59.771 74.335,59.148 Q74.335,58.365 74.733,57.915 Q75.132,57.466 76.031,57.263 Q76.93,57.06 78.511,57.06 L78.873,57.06 L78.873,56.726 Q78.873,56.001 78.561,55.682 Q78.25,55.363 77.525,55.363 Q76.959,55.363 76.343,55.559 Q75.727,55.755 75.132,56.103 L74.625,54.856 Q75.219,54.479 76.06,54.232 Q76.901,53.986 77.655,53.986 z M77.235,60.061 Q77.96,60.061 78.416,59.575 Q78.873,59.09 78.873,58.321 L78.873,58.017 L78.612,58.017 Q77.641,58.017 77.104,58.104 Q76.568,58.191 76.336,58.408 Q76.104,58.626 76.104,59.003 Q76.104,59.467 76.423,59.764 Q76.742,60.061 77.235,60.061 z" fill="#7600DB"/>
      <path d="M87.414,54.174 L89.197,54.174 L86.094,61.25 L84.514,61.25 L81.44,54.174 L83.354,54.174 L85.355,59.177 z" fill="#7600DB"/>
      <path d="M96.172,58.031 L91.343,58.031 Q91.43,59.017 91.938,59.496 Q92.445,59.974 93.388,59.974 Q94.562,59.974 95.534,59.22 L96.056,60.467 Q95.563,60.873 94.816,61.12 Q94.069,61.366 93.315,61.366 Q91.575,61.366 90.567,60.38 Q89.56,59.394 89.56,57.683 Q89.56,56.596 89.995,55.755 Q90.43,54.914 91.22,54.45 Q92.01,53.986 93.011,53.986 Q94.475,53.986 95.323,54.928 Q96.172,55.871 96.172,57.524 z M93.054,55.262 Q92.329,55.262 91.887,55.726 Q91.445,56.19 91.343,57.06 L94.62,57.06 Q94.591,56.175 94.185,55.718 Q93.779,55.262 93.054,55.262 z" fill="#7600DB"/>
      <path d="M102.32,55.494 L101.261,55.595 Q99.463,55.784 99.463,57.422 L99.463,61.25 L97.651,61.25 L97.651,54.16 L99.376,54.16 L99.376,55.407 Q99.927,54.131 101.653,54.015 L102.204,53.971 z" fill="#7600DB"/>
    </g>
  </g>
</svg>
