<?xml version="1.0" encoding="UTF-8" standalone="no"?>
<!DOCTYPE svg PUBLIC "-//W3C//DTD SVG 1.1//EN" "http://www.w3.org/Graphics/SVG/1.1/DTD/svg11.dtd">
<svg width="100%" height="100%" viewBox="0 0 176 65" version="1.1" xmlns="http://www.w3.org/2000/svg" xmlns:xlink="http://www.w3.org/1999/xlink" xml:space="preserve" xmlns:serif="http://www.serif.com/" style="fill-rule:evenodd;clip-rule:evenodd;stroke-linejoin:round;stroke-miterlimit:2;">
    <g id="symbols">
        <g>
            <g id="Fill-4" transform="matrix(1,0,0,1,0,1)">
                <path d="M0,38.77L3.177,34.957C5.376,36.776 7.681,37.93 10.474,37.93C12.673,37.93 14,37.055 14,35.622L14,35.551C14,34.186 13.162,33.487 9.076,32.438C4.154,31.178 0.977,29.814 0.977,24.951L0.977,24.882C0.977,20.439 4.538,17.5 9.531,17.5C13.091,17.5 16.129,18.62 18.609,20.614L15.815,24.672C13.65,23.168 11.521,22.258 9.46,22.258C7.401,22.258 6.318,23.203 6.318,24.392L6.318,24.462C6.318,26.072 7.366,26.596 11.591,27.68C16.548,28.974 19.34,30.759 19.34,35.026L19.34,35.097C19.34,39.959 15.64,42.687 10.368,42.687C6.668,42.687 2.933,41.393 0,38.77" style="fill:white;fill-rule:nonzero;"/>
            </g>
            <g id="Fill-5" transform="matrix(1,0,0,1,0,1)">
                <path d="M21.803,32.707L21.803,32.637C21.803,27.285 25.888,22.876 31.613,22.876C35.141,22.876 37.34,24.066 39.086,26.025L35.839,29.524C34.652,28.264 33.465,27.46 31.58,27.46C28.925,27.46 27.04,29.804 27.04,32.566L27.04,32.637C27.04,35.506 28.89,37.814 31.788,37.814C33.57,37.814 34.791,37.045 36.083,35.82L39.19,38.969C37.375,40.962 35.28,42.397 31.544,42.397C25.923,42.397 21.803,38.06 21.803,32.707" style="fill:white;fill-rule:nonzero;"/>
            </g>
            <g id="Fill-6" transform="matrix(1,0,0,1,0,1)">
                <path d="M55.242,32.707L55.242,32.637C55.242,29.873 53.252,27.46 50.319,27.46C47.282,27.46 45.466,29.804 45.466,32.566L45.466,32.637C45.466,35.401 47.456,37.814 50.388,37.814C53.426,37.814 55.242,35.47 55.242,32.707M40.229,32.707L40.229,32.637C40.229,27.249 44.559,22.876 50.388,22.876C56.184,22.876 60.478,27.18 60.478,32.566L60.478,32.637C60.478,38.024 56.149,42.397 50.319,42.397C44.523,42.397 40.229,38.095 40.229,32.707" style="fill:white;fill-rule:nonzero;"/>
            </g>
            <g id="Fill-7" transform="matrix(1,0,0,1,0,1)">
                <path d="M62.548,35.365L62.548,23.227L67.855,23.227L67.855,33.686C67.855,36.205 69.042,37.499 71.067,37.499C73.091,37.499 74.383,36.205 74.383,33.686L74.383,23.227L79.69,23.227L79.69,41.977L74.383,41.977L74.383,39.319C73.162,40.892 71.591,42.326 68.903,42.326C64.888,42.326 62.548,39.668 62.548,35.365" style="fill:white;fill-rule:nonzero;"/>
            </g>
            <g id="Fill-8" transform="matrix(1,0,0,1,0,1)">
                <path d="M82.774,36.66L82.774,18.434L88.08,18.434L88.08,23.226L92.481,23.226L92.481,27.774L88.08,27.774L88.08,35.785C88.08,37.01 88.605,37.605 89.791,37.605C90.768,37.605 91.641,37.359 92.409,36.94L92.409,41.208C91.292,41.872 90.001,42.292 88.22,42.292C84.973,42.292 82.774,40.998 82.774,36.66" style="fill:white;fill-rule:nonzero;"/>
            </g>
            <g id="Fill-9" transform="matrix(1,0,0,1,0,1)">
                <path d="M94.817,39.494L97.087,35.995C99.111,37.465 101.241,38.234 102.986,38.234C104.522,38.234 105.221,37.675 105.221,36.835L105.221,36.765C105.221,35.61 103.405,35.225 101.345,34.596C98.727,33.826 95.76,32.602 95.76,28.964L95.76,28.894C95.76,25.081 98.832,22.947 102.603,22.947C104.976,22.947 107.56,23.751 109.585,25.115L107.56,28.789C105.71,27.704 103.859,27.04 102.497,27.04C101.205,27.04 100.543,27.6 100.543,28.334L100.543,28.404C100.543,29.454 102.324,29.944 104.347,30.643C106.967,31.518 110.004,32.777 110.004,36.205L110.004,36.275C110.004,40.438 106.897,42.327 102.847,42.327C100.228,42.327 97.296,41.452 94.817,39.494" style="fill:white;fill-rule:nonzero;"/>
            </g>
            <g id="Fill-10" transform="matrix(1,0,0,1,0,1)">
                <path d="M135.719,22.055C137.233,24.38 137.995,27.041 138.234,28.845L140.998,28.845C140.767,26.64 139.878,23.41 138.019,20.552C135.807,17.154 132.927,15.356 129.691,15.354L129.671,15.354C127.203,15.354 124.893,16.466 123.332,18.404C121.692,20.442 121.071,23.078 121.628,25.636L124.31,25.048C123.936,23.335 124.37,21.497 125.469,20.131C126.522,18.825 128.012,18.105 129.672,18.105L129.686,18.105C132.549,18.108 134.547,20.254 135.719,22.055" style="fill:white;fill-rule:nonzero;"/>
            </g>
            <g id="Fill-11" transform="matrix(1,0,0,1,0,1)">
                <path d="M155.672,41.327C154.597,39.838 153.814,38.053 153.468,36.337L150.678,36.337C150.893,37.677 151.461,39.89 152.958,42.223C152.02,43.797 150.336,45.35 148.556,46.279C148.555,46.279 148.554,46.279 148.553,46.278C148.552,46.279 148.551,46.279 148.55,46.279C146.768,45.35 145.085,43.797 144.147,42.223C145.644,39.89 146.212,37.677 146.426,36.337L143.637,36.337C143.292,38.053 142.508,39.838 141.434,41.327L140.966,41.977L141.3,42.706C142.465,45.254 145.157,47.809 147.997,49.063L148.549,49.308L148.553,49.307L148.556,49.308L149.108,49.063C151.948,47.809 154.639,45.254 155.805,42.706L156.138,41.977L155.672,41.327Z" style="fill:white;fill-rule:nonzero;"/>
            </g>
            <g id="Fill-12" transform="matrix(1,0,0,1,0,1)">
                <path d="M161.386,22.055C159.872,24.38 159.109,27.041 158.871,28.845L156.107,28.845C156.339,26.64 157.227,23.41 159.086,20.552C161.298,17.154 164.178,15.356 167.414,15.354L167.434,15.354C169.901,15.354 172.211,16.466 173.772,18.404C175.413,20.442 176.034,23.078 175.476,25.636L172.794,25.048C173.168,23.335 172.735,21.497 171.636,20.131C170.582,18.825 169.092,18.105 167.433,18.105L167.418,18.105C164.555,18.108 162.558,20.254 161.386,22.055" style="fill:white;fill-rule:nonzero;"/>
            </g>
            <g id="Fill-13" transform="matrix(1,0,0,1,0,1)">
                <path d="M143.755,28.845L146.519,28.845C146.174,25.654 144.925,22.874 143.817,20.411C142.711,17.953 141.668,15.631 141.683,13.318C141.706,10.657 143.22,7.945 145.734,6.059C146.174,5.726 147.426,4.763 148.553,3.728C149.677,4.763 150.93,5.726 151.371,6.059C153.884,7.945 155.399,10.657 155.422,13.318C155.436,15.631 154.393,17.953 153.288,20.411C152.18,22.874 150.931,25.654 150.586,28.845L153.35,28.845C153.692,26.21 154.758,23.839 155.791,21.541C157.023,18.802 158.185,16.215 158.168,13.297C158.136,9.78 156.212,6.253 153.017,3.859C152.641,3.573 150.682,2.077 149.557,0.862L148.553,-0.223L147.549,0.862C146.422,2.077 144.463,3.573 144.086,3.859C140.894,6.253 138.969,9.78 138.937,13.297C138.919,16.215 140.082,18.802 141.313,21.541C142.347,23.839 143.413,26.21 143.755,28.845" style="fill:white;fill-rule:nonzero;"/>
            </g>
            <g id="Fill-14" transform="matrix(1,0,0,1,0,1)">
                <rect x="132.871" y="31.272" width="31.363" height="2.637" style="fill:white;fill-rule:nonzero;"/>
            </g>
            <g transform="matrix(1,0,0,1,0,1)">
                <path d="M8.78,51.028L10.245,51.028L10.245,61.25L8.592,61.25L8.592,54.493L5.895,59.597L4.648,59.597L1.936,54.566L1.951,61.25L0.298,61.25L0.298,51.028L1.777,51.028L5.286,57.712L8.78,51.028Z" style="fill:white;fill-rule:nonzero;"/>
            </g>
            <g transform="matrix(1,0,0,1,0,1)">
                <path d="M18.524,58.031L13.696,58.031C13.754,58.688 13.952,59.177 14.29,59.496C14.629,59.815 15.112,59.974 15.74,59.974C16.523,59.974 17.239,59.723 17.886,59.22L18.408,60.467C18.079,60.738 17.666,60.955 17.168,61.12C16.671,61.284 16.171,61.366 15.668,61.366C14.508,61.366 13.592,61.037 12.92,60.38C12.248,59.723 11.912,58.824 11.912,57.683C11.912,56.958 12.057,56.316 12.347,55.755C12.637,55.194 13.045,54.759 13.572,54.45C14.099,54.141 14.696,53.986 15.363,53.986C16.34,53.986 17.111,54.3 17.676,54.928C18.241,55.557 18.524,56.422 18.524,57.524L18.524,58.031ZM15.407,55.262C14.924,55.262 14.534,55.417 14.239,55.726C13.944,56.035 13.763,56.48 13.696,57.06L16.973,57.06C16.954,56.47 16.809,56.023 16.538,55.718C16.267,55.414 15.89,55.262 15.407,55.262Z" style="fill:white;fill-rule:nonzero;"/>
            </g>
            <g transform="matrix(1,0,0,1,0,1)">
                <path d="M24.672,55.494L23.614,55.595C22.415,55.721 21.816,56.33 21.816,57.422L21.816,61.25L20.003,61.25L20.003,54.16L21.729,54.16L21.729,55.407C22.096,54.556 22.855,54.092 24.005,54.015L24.556,53.971L24.672,55.494Z" style="fill:white;fill-rule:nonzero;"/>
            </g>
            <g transform="matrix(1,0,0,1,0,1)">
                <path d="M28.094,61.366C27.466,61.366 26.888,61.289 26.361,61.134C25.834,60.979 25.387,60.757 25.02,60.467L25.528,59.206C26.282,59.757 27.147,60.032 28.123,60.032C28.539,60.032 28.856,59.964 29.073,59.829C29.29,59.694 29.399,59.5 29.399,59.249C29.399,59.036 29.324,58.872 29.174,58.756C29.025,58.64 28.757,58.534 28.37,58.437L27.21,58.176C26.553,58.031 26.064,57.795 25.745,57.466C25.426,57.137 25.267,56.712 25.267,56.19C25.267,55.755 25.39,55.37 25.636,55.037C25.883,54.704 26.226,54.445 26.666,54.261C27.106,54.078 27.616,53.986 28.196,53.986C28.699,53.986 29.184,54.063 29.653,54.218C30.122,54.373 30.535,54.59 30.893,54.87L30.385,56.103C29.65,55.571 28.916,55.305 28.181,55.305C27.785,55.305 27.476,55.378 27.253,55.523C27.031,55.668 26.92,55.871 26.92,56.132C26.92,56.325 26.99,56.485 27.13,56.61C27.27,56.736 27.495,56.833 27.804,56.9L29.008,57.176C29.713,57.331 30.23,57.575 30.559,57.908C30.888,58.241 31.052,58.679 31.052,59.22C31.052,59.877 30.786,60.399 30.255,60.786C29.723,61.173 29.003,61.366 28.094,61.366Z" style="fill:white;fill-rule:nonzero;"/>
            </g>
            <g transform="matrix(1,0,0,1,0,1)">
                <path d="M38.737,58.031L33.909,58.031C33.967,58.688 34.165,59.177 34.503,59.496C34.842,59.815 35.325,59.974 35.953,59.974C36.736,59.974 37.452,59.723 38.099,59.22L38.621,60.467C38.292,60.738 37.879,60.955 37.381,61.12C36.884,61.284 36.384,61.366 35.881,61.366C34.721,61.366 33.805,61.037 33.133,60.38C32.461,59.723 32.125,58.824 32.125,57.683C32.125,56.958 32.27,56.316 32.56,55.755C32.85,55.194 33.258,54.759 33.785,54.45C34.312,54.141 34.909,53.986 35.576,53.986C36.553,53.986 37.324,54.3 37.889,54.928C38.454,55.557 38.737,56.422 38.737,57.524L38.737,58.031ZM35.62,55.262C35.137,55.262 34.747,55.417 34.452,55.726C34.157,56.035 33.976,56.48 33.909,57.06L37.186,57.06C37.167,56.47 37.022,56.023 36.751,55.718C36.48,55.414 36.103,55.262 35.62,55.262Z" style="fill:white;fill-rule:nonzero;"/>
            </g>
            <g transform="matrix(1,0,0,1,0,1)">
                <path d="M45.074,54.174L46.857,54.174L42.594,63.86L40.767,63.86L42.058,60.975L39.1,54.174L41.014,54.174L43.015,59.177L45.074,54.174Z" style="fill:white;fill-rule:nonzero;"/>
            </g>
            <g transform="matrix(1,0,0,1,0,1)">
                <path d="M64.678,51.028L66.461,51.028L62.851,61.25L61.328,61.25L58.762,53.899L56.181,61.25L54.658,61.25L51.062,51.028L52.947,51.028L55.485,58.64L58.153,51.028L59.472,51.028L62.068,58.684L64.678,51.028Z" style="fill:white;fill-rule:nonzero;"/>
            </g>
            <g transform="matrix(1,0,0,1,0,1)">
                <path d="M73.131,58.031L68.303,58.031C68.361,58.688 68.559,59.177 68.897,59.496C69.236,59.815 69.719,59.974 70.347,59.974C71.13,59.974 71.846,59.723 72.493,59.22L73.015,60.467C72.686,60.738 72.273,60.955 71.775,61.12C71.278,61.284 70.778,61.366 70.275,61.366C69.115,61.366 68.199,61.037 67.527,60.38C66.855,59.723 66.519,58.824 66.519,57.683C66.519,56.958 66.664,56.316 66.954,55.755C67.244,55.194 67.652,54.759 68.179,54.45C68.706,54.141 69.303,53.986 69.97,53.986C70.947,53.986 71.718,54.3 72.283,54.928C72.848,55.557 73.131,56.422 73.131,57.524L73.131,58.031ZM70.014,55.262C69.531,55.262 69.141,55.417 68.846,55.726C68.551,56.035 68.37,56.48 68.303,57.06L71.58,57.06C71.561,56.47 71.416,56.023 71.145,55.718C70.874,55.414 70.497,55.262 70.014,55.262Z" style="fill:white;fill-rule:nonzero;"/>
            </g>
            <g transform="matrix(1,0,0,1,0,1)">
                <path d="M77.655,53.986C78.651,53.986 79.391,54.228 79.874,54.711C80.357,55.194 80.599,55.939 80.599,56.944L80.599,61.25L78.873,61.25L78.873,60.163C78.709,60.54 78.45,60.834 78.097,61.047C77.744,61.26 77.336,61.366 76.872,61.366C76.399,61.366 75.969,61.269 75.582,61.076C75.195,60.883 74.891,60.617 74.668,60.279C74.446,59.94 74.335,59.563 74.335,59.148C74.335,58.626 74.468,58.215 74.733,57.915C74.999,57.616 75.432,57.398 76.031,57.263C76.63,57.128 77.457,57.06 78.511,57.06L78.873,57.06L78.873,56.726C78.873,56.243 78.769,55.895 78.561,55.682C78.354,55.469 78.008,55.363 77.525,55.363C77.148,55.363 76.754,55.428 76.343,55.559C75.932,55.69 75.529,55.871 75.132,56.103L74.625,54.856C75.021,54.605 75.499,54.397 76.06,54.232C76.621,54.068 77.152,53.986 77.655,53.986ZM77.235,60.061C77.718,60.061 78.112,59.899 78.416,59.575C78.721,59.252 78.873,58.834 78.873,58.321L78.873,58.017L78.612,58.017C77.965,58.017 77.462,58.046 77.104,58.104C76.747,58.162 76.491,58.263 76.336,58.408C76.181,58.553 76.104,58.752 76.104,59.003C76.104,59.312 76.21,59.566 76.423,59.764C76.636,59.962 76.906,60.061 77.235,60.061Z" style="fill:white;fill-rule:nonzero;"/>
            </g>
            <g transform="matrix(1,0,0,1,0,1)">
                <path d="M87.414,54.174L89.197,54.174L86.094,61.25L84.514,61.25L81.44,54.174L83.354,54.174L85.355,59.177L87.414,54.174Z" style="fill:white;fill-rule:nonzero;"/>
            </g>
            <g transform="matrix(1,0,0,1,0,1)">
                <path d="M96.172,58.031L91.343,58.031C91.401,58.688 91.599,59.177 91.938,59.496C92.276,59.815 92.759,59.974 93.388,59.974C94.171,59.974 94.886,59.723 95.534,59.22L96.056,60.467C95.727,60.738 95.314,60.955 94.816,61.12C94.318,61.284 93.818,61.366 93.315,61.366C92.155,61.366 91.239,61.037 90.567,60.38C89.896,59.723 89.56,58.824 89.56,57.683C89.56,56.958 89.705,56.316 89.995,55.755C90.285,55.194 90.693,54.759 91.22,54.45C91.747,54.141 92.344,53.986 93.011,53.986C93.987,53.986 94.758,54.3 95.323,54.928C95.889,55.557 96.172,56.422 96.172,57.524L96.172,58.031ZM93.054,55.262C92.571,55.262 92.182,55.417 91.887,55.726C91.592,56.035 91.411,56.48 91.343,57.06L94.62,57.06C94.601,56.47 94.456,56.023 94.185,55.718C93.914,55.414 93.537,55.262 93.054,55.262Z" style="fill:white;fill-rule:nonzero;"/>
            </g>
            <g transform="matrix(1,0,0,1,0,1)">
                <path d="M102.32,55.494L101.261,55.595C100.062,55.721 99.463,56.33 99.463,57.422L99.463,61.25L97.651,61.25L97.651,54.16L99.376,54.16L99.376,55.407C99.743,54.556 100.502,54.092 101.653,54.015L102.204,53.971L102.32,55.494Z" style="fill:white;fill-rule:nonzero;"/>
            </g>
        </g>
    </g>
</svg>
