<svg width="38" height="51" xmlns="http://www.w3.org/2000/svg" svg-inline="" role="presentation" focusable="false" tabindex="-1"><path d="M20.185.8C10.03.8-.003 7.567-.003 18.523c0 6.966 3.917 10.925 6.293 10.925.98 0 1.547-2.731 1.547-3.503 0-.92-2.348-2.881-2.348-6.711 0-7.956 6.057-13.594 13.895-13.594 6.74 0 11.726 3.827 11.726 10.863 0 5.254-2.11 15.11-8.937 15.11-2.464 0-4.57-1.78-4.57-4.333 0-3.74 2.394-7.362 2.394-11.222 0-6.552-9.074-5.364-9.074 2.554 0 1.662.207 3.502.95 5.016-1.365 5.878-3.876 15.247-3.876 21.305 0 1.87.267 3.71.445 5.582.336.376.17.336.684.148 4.988-6.828 4.525-8.775 6.781-17.71 1.218 2.315 4.366 3.562 6.86 3.562 10.51 0 15.23-10.243 15.23-19.477C37.997 7.212 29.507.8 20.185.8z" fill="#FFF"></path></svg>