<?xml version="1.0" encoding="UTF-8" standalone="no"?>
<!DOCTYPE svg PUBLIC "-//W3C//DTD SVG 1.1//EN" "http://www.w3.org/Graphics/SVG/1.1/DTD/svg11.dtd">
<svg width="100%" height="100%" viewBox="0 0 51 51" version="1.1" xmlns="http://www.w3.org/2000/svg" xmlns:xlink="http://www.w3.org/1999/xlink" xml:space="preserve" xmlns:serif="http://www.serif.com/" style="fill-rule:evenodd;clip-rule:evenodd;stroke-linejoin:round;stroke-miterlimit:2;">
    <g transform="matrix(0.104641,0,0,0.104641,-1.25175e-09,0)">
        <g>
            <path d="M400.1,100.918L390.229,100.918L390.229,11.646C390.229,5.215 385.014,0 378.582,0L108.804,0C102.368,0 97.158,5.215 97.158,11.646L97.158,100.917L87.281,100.917C48.758,100.917 17.41,132.261 17.41,170.788L17.41,315.046C17.41,353.574 48.758,384.916 87.281,384.916L97.158,384.916L97.158,475.734C97.158,482.166 102.368,487.38 108.804,487.38L378.582,487.38C385.014,487.38 390.228,482.165 390.228,475.734L390.228,384.916L400.099,384.916C438.622,384.916 469.97,353.574 469.97,315.046L469.97,170.789C469.971,132.261 438.623,100.918 400.1,100.918ZM120.449,23.291L366.938,23.291L366.938,100.918L120.449,100.918L120.449,23.291ZM366.938,464.092L120.449,464.092L120.449,320.465L366.938,320.465L366.938,464.092ZM446.682,315.046C446.682,340.733 425.786,361.627 400.1,361.627L390.229,361.627L390.229,320.465L415.415,320.465C421.851,320.465 427.06,315.251 427.06,308.819C427.06,302.389 421.851,297.174 415.415,297.174L75.421,297.174C68.99,297.174 63.775,302.389 63.775,308.819C63.775,315.252 68.99,320.465 75.421,320.465L97.158,320.465L97.158,361.627L87.281,361.627C61.596,361.627 40.7,340.731 40.7,315.046L40.7,170.789C40.7,145.104 61.596,124.209 87.281,124.209L400.1,124.209C425.784,124.209 446.68,145.105 446.68,170.789L446.68,315.046L446.682,315.046Z" style="fill:white;fill-rule:nonzero;"/>
            <path d="M378.582,170.646C369.811,170.646 362.689,177.765 362.689,186.539C362.689,195.313 369.808,202.432 378.582,202.432C387.357,202.432 394.477,195.314 394.477,186.539C394.475,177.765 387.357,170.646 378.582,170.646Z" style="fill:white;fill-rule:nonzero;"/>
            <path d="M147.618,360.734L339.764,360.734C346.196,360.734 351.41,355.521 351.41,349.088C351.41,342.658 346.195,337.443 339.764,337.443L147.618,337.443C141.187,337.443 135.972,342.658 135.972,349.088C135.972,355.521 141.187,360.734 147.618,360.734Z" style="fill:white;fill-rule:nonzero;"/>
            <path d="M147.618,403.926L339.764,403.926C346.196,403.926 351.41,398.709 351.41,392.28C351.41,385.848 346.195,380.635 339.764,380.635L147.618,380.635C141.187,380.635 135.972,385.848 135.972,392.28C135.972,398.712 141.187,403.926 147.618,403.926Z" style="fill:white;fill-rule:nonzero;"/>
        </g>
    </g>
</svg>
