<svg xmlns="http://www.w3.org/2000/svg" xmlns:xlink="http://www.w3.org/1999/xlink" width="43" height="40" viewBox="0 0 43 40">
    <defs>
        <path id="a" d="M.191.03H42.84v26.778H.19z"/>
    </defs>
    <g fill="none" fill-rule="evenodd">
        <g transform="translate(0 12.263)">
            <mask id="b" fill="#fff">
                <use xlink:href="#a"/>
            </mask>
            <path fill="#000" d="M11.426 5.318c1.19 1.834 1.79 3.934 1.978 5.358h2.172c-.181-1.74-.88-4.29-2.342-6.545C11.496 1.45 9.231.031 6.687.03h-.015c-1.94 0-3.757.877-4.984 2.406a6.782 6.782 0 0 0-1.34 5.707l2.109-.464a4.67 4.67 0 0 1 .911-3.88c.828-1.03 2-1.598 3.304-1.598h.011c2.251 0 3.822 1.695 4.743 3.117M27.112 20.526c-.844-1.176-1.46-2.584-1.732-3.938h-2.193a12.335 12.335 0 0 0 1.792 4.645c-.737 1.242-2.061 2.468-3.46 3.2h-.003-.002c-1.4-.732-2.724-1.958-3.462-3.2a12.338 12.338 0 0 0 1.792-4.645h-2.193c-.271 1.354-.887 2.762-1.732 3.938l-.367.512.262.576c.916 2.01 3.032 4.027 5.265 5.016l.434.194.003-.001h.003l.433-.193c2.233-.99 4.35-3.006 5.266-5.016l.261-.576-.367-.512M31.605 5.318c-1.19 1.834-1.79 3.934-1.977 5.358h-2.173c.182-1.74.88-4.29 2.342-6.545C31.536 1.45 33.8.031 36.344.03h.016c1.94 0 3.756.877 4.983 2.406a6.779 6.779 0 0 1 1.34 5.707l-2.109-.464a4.674 4.674 0 0 0-.91-3.88c-.829-1.03-2-1.598-3.305-1.598h-.011c-2.251 0-3.822 1.695-4.743 3.117" mask="url(#b)"/>
        </g>
        <path fill="#000" d="M17.744 22.939h2.173c-.27-2.519-1.253-4.713-2.124-6.656-.87-1.94-1.69-3.772-1.678-5.598.018-2.1 1.209-4.24 3.185-5.728a32.08 32.08 0 0 0 2.216-1.84c.884.818 1.87 1.578 2.215 1.84 1.977 1.488 3.167 3.628 3.185 5.728.012 1.826-.808 3.659-1.678 5.598-.87 1.943-1.853 4.137-2.124 6.656h2.173c.269-2.08 1.107-3.951 1.92-5.765.968-2.161 1.882-4.203 1.868-6.505-.025-2.775-1.538-5.559-4.049-7.448-.296-.226-1.836-1.406-2.72-2.365L21.515 0l-.79.856c-.885.96-2.425 2.14-2.721 2.365-2.51 1.89-4.023 4.673-4.048 7.448-.015 2.302.9 4.344 1.867 6.505.813 1.814 1.651 3.685 1.92 5.765M9.187 26.935h24.657v-2.081H9.187z"/>
    </g>
</svg>
