<svg width="48" height="49" xmlns="http://www.w3.org/2000/svg" svg-inline="" role="presentation" focusable="false" tabindex="-1"><path d="M41.005 7.108C36.489 2.592 30.489.1 24.099.1 10.927.1.2 10.819.2 23.99a23.764 23.764 0 003.188 11.946l-3.39 12.383 12.671-3.328a23.916 23.916 0 0011.422 2.914h.008c13.172 0 23.89-10.72 23.898-23.899a23.763 23.763 0 00-6.992-16.898zM24.099 43.866h-.008a19.86 19.86 0 01-10.11-2.766l-.726-.43-7.524 1.97 2.008-7.33-.468-.75a19.808 19.808 0 01-3.04-10.57c0-10.945 8.915-19.85 19.875-19.85 5.305 0 10.29 2.07 14.04 5.82a19.75 19.75 0 015.812 14.046c0 10.953-8.914 19.86-19.86 19.86zm10.89-14.875c-.593-.297-3.531-1.743-4.078-1.938-.547-.203-.945-.297-1.344.297-.398.602-1.539 1.945-1.89 2.344-.344.39-.696.445-1.29.148-.6-.297-2.523-.93-4.804-2.969-1.773-1.578-2.977-3.539-3.32-4.132-.352-.602-.04-.922.258-1.22.273-.265.601-.694.898-1.046.297-.344.398-.594.602-.992.195-.399.093-.75-.055-1.047-.149-.297-1.344-3.242-1.844-4.438-.484-1.164-.976-1-1.344-1.023-.343-.016-.742-.016-1.14-.016-.399 0-1.047.149-1.594.75-.547.594-2.086 2.04-2.086 4.977 0 2.937 2.14 5.781 2.438 6.18.296.39 4.21 6.422 10.203 9.007 1.422.618 2.53.985 3.398 1.258 1.43.453 2.734.39 3.766.242 1.148-.171 3.531-1.445 4.031-2.843.492-1.39.492-2.586.344-2.836-.149-.25-.547-.399-1.149-.703z" fill="#FFF"></path></svg>