<?xml version="1.0" encoding="UTF-8"?>
<!DOCTYPE svg PUBLIC "-//W3C//DTD SVG 1.1//EN" "http://www.w3.org/Graphics/SVG/1.1/DTD/svg11.dtd">
<svg version="1.1" xmlns="http://www.w3.org/2000/svg" xmlns:xlink="http://www.w3.org/1999/xlink" x="0" y="0" width="41" height="40" viewBox="0, 0, 41, 40">
  <g id="symbols">
    <path d="M36.976,0.013 C39.185,0.013 40.976,1.804 40.976,4.013 L40.976,36.013 C40.976,38.223 39.185,40.013 36.976,40.013 L4,40.013 C1.791,40.013 0,38.223 0,36.013 L-0,4.013 C0,1.804 1.791,0.013 4,0.013 L36.976,0.013 z M21.59,14.541 L16.298,14.541 L16.298,33.948 L21.59,33.948 L21.59,24.061 C21.59,18.569 28.647,18.119 28.647,24.061 L28.647,33.948 L33.94,33.948 L33.94,22.023 C33.94,12.755 24.053,13.092 21.59,17.655 L21.59,14.541 z M12.769,14.541 L7.476,14.541 L7.476,33.948 L12.769,33.948 L12.769,14.541 z M10.123,6.079 C8.419,6.079 7.035,7.473 7.035,9.192 C7.035,10.91 8.419,12.304 10.123,12.304 C11.829,12.304 13.21,10.91 13.21,9.192 C13.21,7.473 11.827,6.079 10.123,6.079 z" fill="#FFFFFF"/>
  </g>
</svg>
