<?xml version="1.0" encoding="UTF-8"?>
<svg width="41px" height="40px" viewBox="0 0 41 40" version="1.1" xmlns="http://www.w3.org/2000/svg" xmlns:xlink="http://www.w3.org/1999/xlink">
    <!-- Generator: sketchtool 49.1 (51147) - http://www.bohemiancoding.com/sketch -->
    <title>D3081485-2EA9-4329-9693-92420E526793</title>
    <desc>Created with sketchtool.</desc>
    <defs></defs>
    <g id="symbols" stroke="none" stroke-width="1" fill="none" fill-rule="evenodd">
        <g id="Social" transform="translate(-437.000000, -55.000000)" fill="#FFFFFF">
            <path d="M441,55 L473.97561,55 C476.184749,55 477.97561,56.790861 477.97561,59 L477.97561,91 C477.97561,93.209139 476.184749,95 473.97561,95 L441,95 C438.790861,95 437,93.209139 437,91 L437,59 C437,56.790861 438.790861,55 441,55 Z M456.0021,79.93056 C457.2423,80.67296 457.9053,81.44608 459.4887,81.56768 C465.3296,82.01312 468.5913,75.82816 467.7944,70.11808 C467.0859,65.0608 461.96,62.48288 456.4987,63.08576 C452.1801,63.5632 447.8758,67.00256 447.6964,71.91776 C447.5846,74.92064 448.4504,77.17344 451.3507,77.80576 C452.6078,75.61824 450.9451,75.13824 450.6864,73.5536 C449.6204,67.0704 458.2797,62.648 462.8102,67.17664 C465.9471,70.31136 463.8827,79.95104 458.8244,78.95136 C453.9806,77.99136 461.1969,70.31648 457.3294,68.8112 C454.1873,67.58624 452.5168,72.5552 454.0079,75.0256 C453.133,79.27264 451.2519,83.27264 452.0137,88.6 C454.485,86.83488 455.3183,83.45568 456.0021,79.93056 Z" id="Pinterest"></path>
        </g>
    </g>
</svg>