<?xml version="1.0" encoding="UTF-8"?>
<svg width="41px" height="40px" viewBox="0 0 41 40" version="1.1" xmlns="http://www.w3.org/2000/svg" xmlns:xlink="http://www.w3.org/1999/xlink">
    <!-- Generator: sketchtool 49.1 (51147) - http://www.bohemiancoding.com/sketch -->
    <title>0C8BFFEA-C7B8-4C1E-8CFA-CEA3F8B90086</title>
    <desc>Created with sketchtool.</desc>
    <defs></defs>
    <g id="symbols" stroke="none" stroke-width="1" fill="none" fill-rule="evenodd">
        <g id="Social" transform="translate(-323.000000, -55.000000)" fill="#FFFFFF">
            <path d="M327,55 L359.97561,55 C362.184749,55 363.97561,56.790861 363.97561,59 L363.97561,91 C363.97561,93.209139 362.184749,95 359.97561,95 L327,95 C324.790861,95 323,93.209139 323,91 L323,59 C323,56.790861 324.790861,55 327,55 Z M353.742609,69.8210107 C354.705217,69.1450268 355.54,68.2997288 356.2,67.334765 C355.315652,67.7179499 354.368696,67.9738307 353.372174,68.0909504 C354.388261,67.496441 355.169565,66.554392 355.537391,65.4328444 C354.585217,65.9827974 353.531304,66.3825317 352.41087,66.5989484 C351.512174,65.6645376 350.232609,65.0827586 348.816087,65.0827586 C346.096522,65.0827586 343.893478,67.2329219 343.893478,69.8859357 C343.893478,70.2640283 343.936522,70.6293906 344.02,70.9820225 C339.928261,70.7808823 336.298261,68.8687773 333.87087,65.9598827 C333.445652,66.6702386 333.203043,67.496441 333.203043,68.3761111 C333.203043,70.0450656 334.073043,71.5141529 335.394348,72.3772735 C334.588261,72.3518127 333.827826,72.135396 333.163913,71.7751259 C333.163913,71.7954945 333.163913,71.8145901 333.163913,71.8349588 C333.163913,74.1646206 334.86087,76.1060054 337.113478,76.5490231 C336.701304,76.6585045 336.265652,76.7157912 335.815652,76.7157912 C335.498696,76.7157912 335.189565,76.6865113 334.889565,76.6317706 C335.515652,78.5413295 337.335217,79.9289423 339.488696,79.9684065 C337.804783,81.2554492 335.682609,82.0243649 333.373913,82.0243649 C332.977391,82.0243649 332.586087,82.0014502 332.2,81.9568938 C334.379565,83.3215919 336.966087,84.1172414 339.748261,84.1172414 C348.804348,84.1172414 353.756957,76.7947197 353.756957,70.4422538 C353.756957,70.2360215 353.753043,70.027243 353.742609,69.8210107 Z" id="Twitter"></path>
        </g>
    </g>
</svg>